<svg width="172" height="22" viewBox="0 0 172 22" fill="none" xmlns="http://www.w3.org/2000/svg">
<g clip-path="url(#clip0_805_7281)">
<path d="M24.2318 17.8045L24.4896 16.162C24.7187 16.338 25.8072 17.0712 27.6403 17.0712C29.0438 17.0712 29.9317 16.4553 29.9317 15.4874C29.9317 14.7542 29.4734 14.2849 28.3277 13.669C28.0699 13.5517 26.9529 13.0531 26.5519 12.8771C25.2343 12.2612 24.3464 11.3226 24.3464 9.85615C24.3464 8.15503 25.7212 6.95251 28.0413 6.95251C29.6739 6.95251 30.6478 7.50978 30.9056 7.65643L30.6192 9.24022C30.3327 9.06425 29.3302 8.44832 27.9554 8.44832C26.6378 8.44832 25.979 9.06425 25.979 9.88548C25.979 10.5894 26.4373 11 27.2966 11.3813C27.6117 11.5279 28.9865 12.1145 29.2443 12.2318C30.8483 12.9944 31.5644 13.9623 31.5644 15.3408C31.5644 17.2472 30.0177 18.567 27.6976 18.567C25.6067 18.5964 24.5182 17.9804 24.2318 17.8045Z" fill="#656464"/>
<path d="M35.9754 18.5963C33.999 18.5963 32.395 17.2765 32.395 14.4902C32.395 11.7332 33.999 10.384 35.9754 10.384C38.0377 10.384 39.5271 11.8212 39.5271 14.4902C39.5271 17.2178 37.9231 18.5963 35.9754 18.5963ZM35.9754 17.2178C37.1784 17.2178 37.9517 16.0446 37.9517 14.4902C37.9517 12.9064 37.1784 11.7625 35.9754 11.7625C34.6292 11.7625 33.999 13.0824 33.999 14.4902C33.9704 16.0153 34.6864 17.2178 35.9754 17.2178Z" fill="#656464"/>
<path d="M40.5582 16.1914V10.5308H42.1336V15.6634C42.1336 16.5727 42.42 17.1593 43.3652 17.1593C44.1672 17.1593 44.9692 16.3967 45.3129 15.9861V10.5308H46.8883V18.4204H45.5421L45.4275 17.4232C45.0838 17.7165 44.1386 18.5964 42.8783 18.5964C41.3029 18.5964 40.5582 17.6285 40.5582 16.1914Z" fill="#656464"/>
<path d="M52.6168 18.4497C52.5595 18.479 52.0153 18.5964 51.4138 18.5964C49.953 18.5964 49.1797 17.8338 49.1797 16.2793V11.9092H48.0626V10.56H49.1797V8.41898L50.7264 7.94971V10.5307H52.359L52.5882 11.8799H50.755V16.074C50.755 16.8072 51.156 17.0712 51.7289 17.0712C52.044 17.0712 52.359 17.0126 52.445 16.9832L52.6168 18.4497Z" fill="#656464"/>
<path d="M60.1785 12.7598V18.4205H58.6318V13.3171C58.6318 12.4079 58.3167 11.8213 57.3715 11.8213C56.5695 11.8213 55.7675 12.6132 55.4238 13.0238V18.4498H53.8771V7.04056L55.4238 6.57129V11.4693C55.7675 11.176 56.6841 10.3841 57.8871 10.3841C59.4338 10.3841 60.1785 11.352 60.1785 12.7598Z" fill="#656464"/>
<path d="M62.8709 14.7248C62.8996 15.5754 63.186 17.2178 65.0478 17.2178C66.4799 17.2178 67.5397 16.3086 67.7688 16.1033L67.998 17.5111C67.6829 17.8044 66.7091 18.5963 64.8759 18.5963C62.7564 18.5963 61.3242 17.1298 61.3242 14.4902C61.3242 11.7332 62.9282 10.384 64.7327 10.384C67.0241 10.384 68.0266 12.2905 68.0266 14.3435V14.7248H62.8709ZM66.394 13.4636C66.3081 12.9357 66.0789 11.6452 64.7041 11.6452C63.587 11.6452 63.1001 12.6717 62.9569 13.4636H66.394Z" fill="#656464"/>
<path d="M70.805 11.9385C71.2633 11.2639 72.1512 10.384 73.4688 10.384L73.6979 11.8212C72.4663 11.8212 71.6356 12.3198 70.8909 13.5516V18.4203H69.3156V10.5307H70.6045L70.805 11.9385Z" fill="#656464"/>
<path d="M80.8013 12.7597V18.4204H79.226V13.317C79.226 12.4078 78.9395 11.8212 77.9943 11.8212C77.1923 11.8212 76.3903 12.6131 76.0466 13.0237V18.4497H74.4713V10.56H75.8175L75.932 11.5866C76.2758 11.2639 77.2496 10.4134 78.4812 10.4134C80.028 10.384 80.8013 11.3519 80.8013 12.7597Z" fill="#656464"/>
<path d="M0 18.4203H20.1932L6.70241 14.9888L0 18.4203Z" fill="#007ABD"/>
<path d="M2.52057 13.9037L0 18.4204L6.70241 14.9889L2.52057 13.9037Z" fill="#B7D100"/>
<path d="M6.70239 14.9888L20.1931 18.4203L15.6676 10.384L6.70239 14.9888Z" fill="#00B3EC"/>
<path d="M10.0822 0.5L3.06476 12.9651L15.1234 9.4162L10.0822 0.5Z" fill="#E50012"/>
<path d="M93.7479 7.86177L93.5187 9.53355C93.3182 9.35758 92.2012 8.44836 90.5685 8.44836C88.2485 8.44836 87.1314 10.3548 87.1314 12.7891C87.1314 15.3701 88.363 17.1006 90.5685 17.1006C92.1152 17.1006 93.3182 16.1914 93.6906 15.8981L93.9197 17.5699C93.7765 17.7458 92.6881 18.5964 90.5685 18.5964C87.561 18.5964 85.4415 16.3674 85.4415 12.7598C85.4415 9.15227 87.561 6.92322 90.5685 6.92322C92.5162 6.95255 93.5187 7.68579 93.7479 7.86177Z" fill="#656464"/>
<path d="M98.0157 18.5963C96.0393 18.5963 94.4353 17.2765 94.4353 14.4902C94.4353 11.7332 96.0393 10.384 98.0157 10.384C100.078 10.384 101.567 11.8212 101.567 14.4902C101.567 17.2178 99.9634 18.5963 98.0157 18.5963ZM98.0157 17.2178C99.2186 17.2178 99.992 16.0446 99.992 14.4902C99.992 12.9064 99.2186 11.7625 98.0157 11.7625C96.6694 11.7625 96.0393 13.0824 96.0393 14.4902C96.0106 16.0153 96.7267 17.2178 98.0157 17.2178Z" fill="#656464"/>
<path d="M113.397 12.7597V18.4204H111.85V13.317C111.85 12.4078 111.592 11.8212 110.647 11.8212C109.845 11.8212 109.072 12.5838 108.757 13.0237V18.4497H107.181V13.317C107.181 12.4078 106.924 11.8212 105.978 11.8212C105.176 11.8212 104.403 12.6131 104.088 13.0237V18.4497H102.541V10.56H103.887L104.002 11.5866C104.346 11.2639 105.291 10.4134 106.523 10.4134C107.582 10.4134 108.241 10.8826 108.556 11.6452C109.043 11.1466 109.988 10.4134 111.191 10.4134C112.738 10.384 113.397 11.3519 113.397 12.7597Z" fill="#656464"/>
<path d="M116.29 11.5572C116.462 11.3519 117.292 10.384 118.696 10.384C120.529 10.384 121.732 11.7039 121.732 14.4902C121.732 17.3938 119.841 18.5963 118.008 18.5963C117.264 18.5963 116.548 18.303 116.433 18.2737V21.0307L114.858 21.5V10.56H116.147L116.29 11.5572ZM116.433 12.8184V16.9539C116.548 17.0125 117.178 17.2472 117.894 17.2472C119.412 17.2472 120.157 16.074 120.157 14.5195C120.157 12.8477 119.469 11.7919 118.237 11.7919C117.35 11.7625 116.576 12.6131 116.433 12.8184Z" fill="#656464"/>
<path d="M127.375 18.4204L127.317 17.4526C127.174 17.6872 126.401 18.5964 125.026 18.5964C123.594 18.5964 122.419 17.8338 122.419 16.1327C122.419 13.757 125.541 13.4344 127.174 13.2584V13.0238C127.174 12.4372 126.945 11.7626 125.656 11.7626C124.51 11.7626 123.307 12.3785 123.135 12.4959L122.935 11.088C123.164 10.9707 124.396 10.4135 125.799 10.4135C128.091 10.4135 128.749 11.4693 128.749 13.1998V18.4498H127.375V18.4204ZM127.174 14.5196C125.398 14.6956 123.966 15.0769 123.966 16.1914C123.966 16.8953 124.453 17.2473 125.14 17.2473C126.2 17.2473 127.002 16.3967 127.174 16.2207V14.5196Z" fill="#656464"/>
<path d="M136.54 12.7597V18.4204H134.965V13.317C134.965 12.4078 134.678 11.8212 133.733 11.8212C132.931 11.8212 132.101 12.6131 131.785 13.0237V18.4497H130.21V10.56H131.556L131.671 11.5866C132.015 11.2639 132.988 10.4134 134.22 10.4134C135.795 10.384 136.54 11.3519 136.54 12.7597Z" fill="#656464"/>
<path d="M138.889 10.5308L140.865 16.3967L142.813 10.5308H144.417C144.417 10.5308 142.183 16.69 141.352 19.0657C140.579 21.2067 139.29 21.3241 138.631 21.3241C138.345 21.3241 138.058 21.2654 138.001 21.2654L137.8 19.8576C137.858 19.8869 138.23 20.0042 138.66 20.0042C139.433 20.0042 139.72 19.447 139.834 19.095C139.949 18.7431 140.063 18.3911 140.063 18.3911L137.256 10.5601H138.889V10.5308Z" fill="#656464"/>
<path d="M156.705 7.89101L156.447 9.62145C156.161 9.41615 154.929 8.41894 153.153 8.41894C150.862 8.41894 149.659 10.1787 149.659 12.7597C149.659 15.3407 150.89 17.1005 153.124 17.1005C154.27 17.1005 155.387 16.6606 155.559 16.5726V13.7276H153.067L152.838 12.1731H157.22V17.5111C157.077 17.6284 155.702 18.567 153.296 18.567C150.346 18.567 147.997 16.6606 147.997 12.7304C147.997 9.06419 150.117 6.8938 153.21 6.8938C155.416 6.95246 156.361 7.65637 156.705 7.89101Z" fill="#656464"/>
<path d="M163.293 18.4204L163.235 17.4526C163.092 17.6872 162.319 18.5964 160.944 18.5964C159.512 18.5964 158.337 17.8338 158.337 16.1327C158.337 13.757 161.459 13.4344 163.092 13.2584V13.0238C163.092 12.4372 162.863 11.7626 161.574 11.7626C160.428 11.7626 159.225 12.3785 159.053 12.4959L158.853 11.088C159.082 10.9707 160.314 10.4135 161.717 10.4135C164.009 10.4135 164.667 11.4693 164.667 13.1998V18.4498H163.293V18.4204ZM163.092 14.5196C161.316 14.6956 159.884 15.0769 159.884 16.1914C159.884 16.8953 160.371 17.2473 161.058 17.2473C162.118 17.2473 162.92 16.3967 163.092 16.2207V14.5196Z" fill="#656464"/>
<path d="M171.055 12.3785C170.826 12.2612 169.966 11.7332 168.706 11.7332C167.933 11.7332 167.474 11.9972 167.474 12.5251C167.474 13.0237 167.79 13.1997 168.362 13.405C168.677 13.493 169.193 13.6397 169.651 13.7863C170.883 14.1383 171.828 14.7542 171.828 16.1913C171.828 17.7751 170.453 18.5964 168.706 18.5964C167.188 18.5964 166.214 18.0684 165.842 17.8631L166.071 16.3966C166.415 16.6019 167.274 17.2179 168.735 17.2179C169.594 17.2179 170.253 16.8659 170.253 16.25C170.253 15.5461 169.508 15.3114 169.021 15.1941C168.706 15.1061 168.248 14.9888 167.847 14.8422C167.274 14.6662 165.928 14.2262 165.928 12.5838C165.928 11.3813 167.045 10.3547 168.821 10.3547C169.995 10.3547 171.026 10.736 171.313 10.912L171.055 12.3785Z" fill="#656464"/>
</g>
<defs>
<clipPath id="clip0_805_7281">
<rect width="172" height="21" fill="white" transform="translate(0 0.5)"/>
</clipPath>
</defs>
</svg>
